<svg _ngcontent-hillel_lms_server-c190="" width="16" height="16" viewBox="0 0 16 16" fill="#7B939E"><g _ngcontent-hillel_lms_server-c190="" clip-path="url(#clip0)"><path _ngcontent-hillel_lms_server-c190="" d="M16.0001 14H15.0001C15.0001 13.4934 15.0001 12.8 15.0001 12.8C15.5415 12.2689 15.4502 9.35466 14.9771 8.81814L15.0001 5.34483C14.4148 5.34483 13.7983 4.97439 13.3844 4.56051C12.9705 4.14664 12.5795 3.58531 12.5795 3H3.40007C3.40007 3.58531 3.02962 4.14664 2.61575 4.56051C2.20188 4.97439 1.58537 5.34483 1.00007 5.34483V10.7931C1.58537 10.7931 2.20188 11.0256 2.61575 11.4395C3.02962 11.8534 3.40007 12.4147 3.40007 13H10.0075L10.0001 14H6.75418e-05C6.75418e-05 9.73333 -9.10471e-05 6.26667 7.77938e-05 2H16.0001C16.0001 6.26667 16.0001 9.73333 16.0001 14ZM12.5795 13.6C12.1588 13.6 11.0001 13.364 11.0001 13.364V16L12.5795 15.6L14.0001 16V13.364C14.0001 13.364 13.3795 13.6 12.5795 13.6Z"></path><circle _ngcontent-hillel_lms_server-c190="" cx="12.3999" cy="10.7998" r="2"></circle><rect _ngcontent-hillel_lms_server-c190="" x="4" y="10" width="4" height="1"></rect><rect _ngcontent-hillel_lms_server-c190="" x="4" y="7" width="7" height="1"></rect><rect _ngcontent-hillel_lms_server-c190="" x="4" y="5" width="6" height="1"></rect></g><defs _ngcontent-hillel_lms_server-c190=""><clipPath _ngcontent-hillel_lms_server-c190="" id="clip0"><path _ngcontent-hillel_lms_server-c190="" d="M0 0H16V16H0V0Z" fill="white"></path></clipPath></defs></svg>