<svg _ngcontent-hillel_lms_server-c131="" width="24" height="24" viewBox="0 0 24 24" xmlns="http://www.w3.org/2000/svg" class="menu-aside__icon ng-tns-c131-1"><path _ngcontent-hillel_lms_server-c131="" fill-rule="evenodd" clip-rule="evenodd" d="M20.0001 2.64811C20.0001 1.75 19.2501 1 18.5001 1L2.4851 1C1.75011 1 1.00007 1.75 1.00009 2.5L1 19.9654C1 21.7238 2.22241 23 4.04501 23L20 23L20.0001 2.64811ZM10 5H6.00009C5.5476 5 5 5.54751 5 6C5.04661 6.41697 5.58053 7.0026 6.00009 7H10C10.4022 7 11 6.40222 11 6C11.0547 5.56558 10.4321 4.99661 10 5ZM5.9424 19H15.0001C15.4526 19 16 18.4525 16 18C15.9534 17.583 15.4197 16.9974 15.0001 17H6.00009C5.58053 16.9974 5.04661 17.583 5 18C5 18.4503 5.49668 19 5.9424 19ZM5.9424 16H15.0001C15.4197 16.0026 15.9534 15.417 16 15C16 14.5475 15.4526 14 15.0001 14H6.00009C5.54977 14 5 14.5543 5 15C5.04661 15.417 5.52284 16.0026 5.9424 16ZM6.00009 13H15.0001C15.4526 13 16 12.4525 16 12C15.9534 11.583 15.4774 10.9974 15.0578 11H6.00009C5.58053 10.9974 5.04661 11.583 5 12C5 12.4457 5.54977 13 6.00009 13ZM5.9424 10H15.0001C15.4197 10.0026 15.9534 9.41697 16 9C16 8.54751 15.4526 8 15.0001 8H5.9424C5.49207 8 5 8.55429 5 9C5.04661 9.41697 5.52284 10.0026 5.9424 10Z" class="ng-tns-c131-1"></path><path _ngcontent-hillel_lms_server-c131="" opacity="0.5" fill-rule="evenodd" clip-rule="evenodd" d="M20 23C21.75 23 23 21.4885 23 19.9538L23 7.5C23 6.75 22.25 6 21.5 6L20 6V23Z" class="ng-tns-c131-1"></path></svg>