<svg _ngcontent-hillel_lms_server-c131="" width="24" height="24" viewBox="0 0 24 24" xmlns="http://www.w3.org/2000/svg" class="menu-aside__icon ng-tns-c131-1"><path _ngcontent-hillel_lms_server-c131="" opacity="0.5" fill-rule="evenodd" clip-rule="evenodd" d="M15 3C16.6569 3 18 4.34315 18 6V18C18 19.6569 16.6569 21 15 21H18C19.6569 21 21 19.6569 21 18V6C21 4.34315 19.6569 3 18 3H15Z" class="ng-tns-c131-1"></path><path _ngcontent-hillel_lms_server-c131="" fill-rule="evenodd" clip-rule="evenodd" d="M16.0435 3C17.124 3 18 3.87597 18 4.95652V19.0435C18 20.124 17.124 21 16.0435 21H12C7.02944 21 3 16.9706 3 12C3 7.02944 7.02944 3 12 3H16.0435ZM14.3885 9.06923L15.4038 10.0846C15.4962 10.1769 15.4962 10.3615 15.4038 10.4538L11.5269 14.2385L10.5115 15.3462C10.4192 15.4385 10.2346 15.4385 10.1423 15.3462L6.81923 12.0231C6.72692 11.9308 6.72692 11.7462 6.81923 11.6538L7.83462 10.6385C7.92692 10.5462 8.11154 10.5462 8.20385 10.6385L10.3269 12.7615L14.0192 9.06923C14.1115 8.97692 14.2962 8.97692 14.3885 9.06923Z" class="ng-tns-c131-1"></path></svg>