<svg _ngcontent-hillel_lms_server-c131="" width="24" height="24" viewBox="0 0 24 24" xmlns="http://www.w3.org/2000/svg" class="menu-aside__icon ng-tns-c131-1"><path _ngcontent-hillel_lms_server-c131="" fill-rule="evenodd" clip-rule="evenodd" d="M15 18H20C22 18 23 17 23 15V5C23 3 22 2 20 2H4C2 2 1 3 1 5V15C1 17 2 18 4 18H10V20H6.76473C6.38235 20 6 20.4842 6 21C6 21.5 6.38235 22 6.76473 22H18.2353C18.6176 22 19 21.5 19 21C19 20.5 18.6176 20 18.2353 20H15V18ZM3.00005 5C3.00005 4.5 3.5 4 4 4H20C20.5 4 21 4.5 21 5V15C21 15.5 20.5724 16 20 16H4C3.5 16 3.00005 15.5 3.00005 15V5Z" class="ng-tns-c131-1"></path><path _ngcontent-hillel_lms_server-c131="" opacity="0.5" fill-rule="evenodd" clip-rule="evenodd" d="M21 4H3V16H21V4ZM10 6V14L15 10L10 6Z" class="ng-tns-c131-1"></path></svg>